<svg xmlns="http://www.w3.org/2000/svg" viewBox="0 0 256 256" width="256" height="256">
  <defs>
    <linearGradient id="paper" x1="0" y1="0" x2="0" y2="1">
      <stop offset="0" stop-color="#fff176"/>
      <stop offset="1" stop-color="#fdd835"/>
    </linearGradient>
    <linearGradient id="fold" x1="0" y1="0" x2="1" y2="1">
      <stop offset="0" stop-color="#f9a825"/>
      <stop offset="1" stop-color="#fff59d"/>
    </linearGradient>
    <radialGradient id="pin" cx="0.35" cy="0.35" r="0.7">
      <stop offset="0" stop-color="#ff8a80"/>
      <stop offset="1" stop-color="#c62828"/>
    </radialGradient>
    <filter id="shadow" x="-20%" y="-20%" width="140%" height="140%">
      <feDropShadow dx="0" dy="6" stdDeviation="7" flood-color="#000" flood-opacity="0.3"/>
    </filter>
  </defs>
  <g transform="rotate(-6 128 128)">
    <path d="M40 36 H216 V176 L176 216 H40 Z" fill="url(#paper)" filter="url(#shadow)"/>
    <path d="M216 176 L176 216 V184 Q176 176 184 176 Z" fill="url(#fold)"/>
    <g stroke="#8d6e63" stroke-width="7" stroke-linecap="round" opacity="0.55">
      <line x1="68" y1="96" x2="188" y2="96"/>
      <line x1="68" y1="126" x2="188" y2="126"/>
      <line x1="68" y1="156" x2="150" y2="156"/>
    </g>
  </g>
  <ellipse cx="131" cy="56" rx="12" ry="5" fill="#000" opacity="0.2"/>
  <circle cx="128" cy="44" r="15" fill="url(#pin)"/>
  <circle cx="123" cy="39" r="4" fill="#fff" opacity="0.7"/>
  <g transform="rotate(-6 128 128)">
    <rect x="22" y="172" width="118" height="54" rx="12" fill="#d84315" stroke="#fff" stroke-width="5"/>
    <text x="81" y="212" font-family="DejaVu Sans, sans-serif" font-size="36" font-weight="bold" fill="#fff" text-anchor="middle">DEV</text>
  </g>
</svg>
